<svg width="512" height="512" viewBox="0 0 512 512" fill="none" xmlns="http://www.w3.org/2000/svg">
<rect width="512" height="512" fill="#000001"/>
<path d="M81.28 209.88C87.104 209.88 92.608 210.872 97.792 212.856C102.976 214.84 107.392 217.528 111.04 220.92L106.24 226.68C102.592 223.288 98.752 220.856 94.72 219.384C90.752 217.848 86.592 217.08 82.24 217.08C78.976 217.08 75.968 217.656 73.216 218.808C70.464 219.896 68.064 221.592 66.016 223.896C64.032 226.2 62.464 229.144 61.312 232.728C60.224 236.248 59.68 240.472 59.68 245.4C59.68 250.456 60.256 254.808 61.408 258.456C62.56 262.04 64.16 265.016 66.208 267.384C68.256 269.688 70.72 271.416 73.6 272.568C76.544 273.656 79.744 274.2 83.2 274.2C86.08 274.2 88.544 273.944 90.592 273.432C92.704 272.92 94.464 272.312 95.872 271.608C97.536 270.84 98.912 269.944 100 268.92V250.68H87.52V244.44H113.92V270.84C111.552 272.76 108.8 274.456 105.664 275.928C102.976 277.208 99.648 278.36 95.68 279.384C91.776 280.408 87.296 280.92 82.24 280.92C76.48 280.92 71.296 280.152 66.688 278.616C62.08 277.08 58.144 274.808 54.88 271.8C51.616 268.792 49.12 265.08 47.392 260.664C45.664 256.248 44.8 251.16 44.8 245.4C44.8 239.64 45.664 234.552 47.392 230.136C49.12 225.72 51.552 222.008 54.688 219C57.888 215.992 61.728 213.72 66.208 212.184C70.752 210.648 75.776 209.88 81.28 209.88ZM136.51 263.16C136.51 269.24 140.19 272.28 147.55 272.28H160.99V254.04H147.55C140.19 254.04 136.51 257.08 136.51 263.16ZM160.99 247.32C160.99 242.712 159.774 239.32 157.342 237.144C154.974 234.968 151.87 233.88 148.03 233.88C145.15 233.88 142.334 234.328 139.582 235.224C136.83 236.056 134.366 237.208 132.19 238.68L128.83 232.92C130.238 231.96 131.774 231.128 133.438 230.424C135.166 229.72 136.926 229.144 138.718 228.696C140.51 228.184 142.27 227.8 143.998 227.544C145.79 227.288 147.454 227.16 148.99 227.16C153.086 227.16 156.702 227.64 159.838 228.6C162.974 229.56 165.63 230.936 167.806 232.728C169.982 234.52 171.614 236.664 172.702 239.16C173.854 241.592 174.43 244.312 174.43 247.32V279H147.55C138.846 279 132.414 277.688 128.254 275.064C124.158 272.44 122.11 268.472 122.11 263.16C122.11 257.848 124.158 253.88 128.254 251.256C132.414 248.632 138.846 247.32 147.55 247.32H160.99ZM214.225 235.8C209.617 235.8 205.969 237.24 203.281 240.12C200.657 242.936 199.345 247.256 199.345 253.08C199.345 258.904 200.657 263.256 203.281 266.136C205.969 268.952 209.617 270.36 214.225 270.36H226.225V235.8H214.225ZM239.665 278.04C239.665 281.048 239.089 283.768 237.937 286.2C236.785 288.696 235.057 290.84 232.753 292.632C230.513 294.424 227.665 295.8 224.209 296.76C220.817 297.72 216.849 298.2 212.305 298.2C210.769 298.2 209.105 298.072 207.313 297.816C205.585 297.624 203.825 297.272 202.033 296.76C200.241 296.312 198.481 295.704 196.753 294.936C195.089 294.232 193.553 293.4 192.145 292.44L195.505 286.68C197.681 288.152 200.145 289.304 202.897 290.136C205.649 291.032 208.465 291.48 211.345 291.48C216.145 291.48 219.825 290.392 222.385 288.216C224.945 286.04 226.225 282.648 226.225 278.04V277.08H214.225C209.809 277.08 205.777 276.504 202.129 275.352C198.545 274.2 195.473 272.568 192.913 270.456C190.353 268.344 188.369 265.816 186.961 262.872C185.617 259.928 184.945 256.664 184.945 253.08C184.945 249.496 185.617 246.232 186.961 243.288C188.369 240.344 190.353 237.816 192.913 235.704C195.473 233.592 198.545 231.96 202.129 230.808C205.777 229.656 209.809 229.08 214.225 229.08H239.665V278.04ZM264.104 263.16C264.104 269.24 267.784 272.28 275.144 272.28H288.584V254.04H275.144C267.784 254.04 264.104 257.08 264.104 263.16ZM288.584 247.32C288.584 242.712 287.368 239.32 284.936 237.144C282.568 234.968 279.464 233.88 275.624 233.88C272.744 233.88 269.928 234.328 267.176 235.224C264.424 236.056 261.96 237.208 259.784 238.68L256.424 232.92C257.832 231.96 259.368 231.128 261.032 230.424C262.76 229.72 264.52 229.144 266.312 228.696C268.104 228.184 269.864 227.8 271.592 227.544C273.384 227.288 275.048 227.16 276.584 227.16C280.68 227.16 284.296 227.64 287.432 228.6C290.568 229.56 293.224 230.936 295.4 232.728C297.576 234.52 299.208 236.664 300.296 239.16C301.448 241.592 302.024 244.312 302.024 247.32V279H275.144C266.44 279 260.008 277.688 255.848 275.064C251.752 272.44 249.704 268.472 249.704 263.16C249.704 257.848 251.752 253.88 255.848 251.256C260.008 248.632 266.44 247.32 275.144 247.32H288.584ZM352.859 235.8H341.339C336.987 235.8 333.659 236.984 331.355 239.352C329.051 241.656 327.899 245.112 327.899 249.72V279H314.459V249.72C314.459 243.192 316.507 238.136 320.603 234.552C324.763 230.904 330.715 229.08 338.459 229.08H352.859V235.8ZM374.421 279H360.981V230.04H374.421V279ZM374.901 217.08C374.901 219 374.229 220.696 372.885 222.168C371.605 223.576 369.877 224.28 367.701 224.28C365.525 224.28 363.765 223.576 362.421 222.168C361.141 220.696 360.501 219 360.501 217.08C360.501 215.16 361.141 213.496 362.421 212.088C363.765 210.616 365.525 209.88 367.701 209.88C369.813 209.88 371.541 210.616 372.885 212.088C374.229 213.496 374.901 215.16 374.901 217.08ZM441.145 279H427.705V248.76C427.705 244.152 426.553 240.856 424.249 238.872C421.945 236.824 418.617 235.8 414.265 235.8H401.785V279H388.345V229.08H414.265C423.417 229.08 430.169 230.744 434.521 234.072C438.937 237.336 441.145 242.232 441.145 248.76V279ZM466.544 272.76C466.544 274.68 465.872 276.376 464.528 277.848C463.248 279.256 461.52 279.96 459.344 279.96C457.168 279.96 455.408 279.256 454.064 277.848C452.784 276.376 452.144 274.68 452.144 272.76C452.144 270.84 452.784 269.176 454.064 267.768C455.408 266.296 457.168 265.56 459.344 265.56C461.456 265.56 463.184 266.296 464.528 267.768C465.872 269.176 466.544 270.84 466.544 272.76Z" fill="white"/>
<path d="M255.84 298.24C255.84 298.792 256.08 299.296 256.56 299.752C257.064 300.208 257.904 300.604 259.08 300.94L264.66 302.56C266.388 303.064 267.72 303.748 268.656 304.612C269.592 305.476 270.06 306.592 270.06 307.96C270.06 308.824 269.88 309.616 269.52 310.336C269.16 311.032 268.572 311.632 267.756 312.136C266.94 312.64 265.884 313.024 264.588 313.288C263.292 313.576 261.696 313.72 259.8 313.72C258.816 313.72 257.844 313.648 256.884 313.504C255.948 313.36 255.048 313.168 254.184 312.928C253.344 312.664 252.576 312.376 251.88 312.064C251.184 311.728 250.584 311.38 250.08 311.02L251.52 308.86C252.528 309.484 253.704 310.036 255.048 310.516C256.416 310.972 258 311.2 259.8 311.2C261.6 311.2 262.86 310.96 263.58 310.48C264.3 310 264.66 309.4 264.66 308.68C264.66 308.128 264.408 307.636 263.904 307.204C263.4 306.748 262.512 306.34 261.24 305.98L255.66 304.36C254.124 303.904 252.864 303.256 251.88 302.416C250.92 301.552 250.44 300.4 250.44 298.96C250.44 298.192 250.608 297.484 250.944 296.836C251.304 296.164 251.856 295.588 252.6 295.108C253.344 294.628 254.292 294.256 255.444 293.992C256.596 293.704 257.988 293.56 259.62 293.56C261.612 293.56 263.412 293.836 265.02 294.388C266.652 294.916 267.972 295.54 268.98 296.26L267.54 298.42C266.556 297.796 265.44 297.256 264.192 296.8C262.944 296.32 261.42 296.08 259.62 296.08C258.348 296.08 257.4 296.284 256.776 296.692C256.152 297.1 255.84 297.616 255.84 298.24ZM288.985 296.8H285.565V294.28H288.985V288.52H294.025V294.28H299.605V296.8H294.025V306.16C294.025 307.072 294.121 307.852 294.313 308.5C294.529 309.124 294.805 309.64 295.141 310.048C295.501 310.432 295.909 310.72 296.365 310.912C296.821 311.104 297.301 311.2 297.805 311.2C298.525 311.2 299.221 311.092 299.893 310.876C300.565 310.636 301.129 310.384 301.585 310.12L302.665 312.46C301.945 312.82 301.117 313.12 300.181 313.36C299.269 313.6 298.357 313.72 297.445 313.72C294.733 313.72 292.645 313.048 291.181 311.704C289.717 310.36 288.985 308.512 288.985 306.16V296.8ZM318.851 294.28H323.891V305.62C323.891 307.348 324.323 308.596 325.187 309.364C326.051 310.108 327.299 310.48 328.931 310.48H333.611V294.28H338.651V313H328.931C325.499 313 322.955 312.388 321.299 311.164C319.667 309.916 318.851 308.068 318.851 305.62V294.28ZM372.687 310.48V296.8H368.187C367.371 296.8 366.615 296.932 365.919 297.196C365.247 297.436 364.659 297.832 364.155 298.384C363.675 298.936 363.291 299.644 363.003 300.508C362.739 301.372 362.607 302.416 362.607 303.64C362.607 304.864 362.739 305.908 363.003 306.772C363.291 307.636 363.675 308.344 364.155 308.896C364.659 309.448 365.247 309.856 365.919 310.12C366.615 310.36 367.371 310.48 368.187 310.48H372.687ZM368.187 313C366.531 313 365.019 312.784 363.651 312.352C362.307 311.92 361.155 311.296 360.195 310.48C359.235 309.664 358.491 308.68 357.963 307.528C357.459 306.376 357.207 305.08 357.207 303.64C357.207 302.2 357.459 300.904 357.963 299.752C358.491 298.6 359.235 297.616 360.195 296.8C361.155 295.984 362.307 295.36 363.651 294.928C365.019 294.496 366.531 294.28 368.187 294.28H372.687V287.8H377.727V313H368.187ZM402.371 313H397.331V294.64H402.371V313ZM402.551 289.78C402.551 290.5 402.299 291.136 401.795 291.688C401.315 292.216 400.667 292.48 399.851 292.48C399.035 292.48 398.375 292.216 397.871 291.688C397.391 291.136 397.151 290.5 397.151 289.78C397.151 289.06 397.391 288.436 397.871 287.908C398.375 287.356 399.035 287.08 399.851 287.08C400.643 287.08 401.291 287.356 401.795 287.908C402.299 288.436 402.551 289.06 402.551 289.78ZM432.073 311.38C432.841 311.38 433.561 311.236 434.233 310.948C434.905 310.66 435.493 310.216 435.997 309.616C436.501 308.992 436.897 308.188 437.185 307.204C437.497 306.22 437.653 305.032 437.653 303.64C437.653 302.248 437.497 301.06 437.185 300.076C436.897 299.092 436.501 298.3 435.997 297.7C435.493 297.076 434.905 296.62 434.233 296.332C433.561 296.044 432.841 295.9 432.073 295.9C431.305 295.9 430.585 296.044 429.913 296.332C429.241 296.62 428.653 297.076 428.149 297.7C427.645 298.3 427.237 299.092 426.925 300.076C426.637 301.06 426.493 302.248 426.493 303.64C426.493 305.032 426.637 306.22 426.925 307.204C427.237 308.188 427.645 308.992 428.149 309.616C428.653 310.216 429.241 310.66 429.913 310.948C430.585 311.236 431.305 311.38 432.073 311.38ZM432.073 293.56C433.681 293.56 435.157 293.788 436.501 294.244C437.869 294.676 439.033 295.324 439.993 296.188C440.953 297.028 441.697 298.084 442.225 299.356C442.777 300.604 443.053 302.032 443.053 303.64C443.053 305.272 442.777 306.712 442.225 307.96C441.697 309.208 440.953 310.264 439.993 311.128C439.033 311.968 437.869 312.604 436.501 313.036C435.157 313.492 433.681 313.72 432.073 313.72C430.441 313.72 428.953 313.492 427.609 313.036C426.265 312.604 425.113 311.968 424.153 311.128C423.193 310.264 422.437 309.208 421.885 307.96C421.357 306.712 421.093 305.272 421.093 303.64C421.093 302.032 421.357 300.604 421.885 299.356C422.437 298.084 423.193 297.028 424.153 296.188C425.113 295.324 426.265 294.676 427.609 294.244C428.953 293.788 430.441 293.56 432.073 293.56Z" fill="white"/>
</svg>
