<svg width="431" height="106" viewBox="0 0 431 106" fill="none" xmlns="http://www.w3.org/2000/svg">
<path d="M37.2656 0.171068C43.0273 0.137494 48.7457 1.17463 54.1332 3.23029C59.1336 5.08868 63.7293 7.90361 67.6665 11.5198L62.7631 17.4408C56.2055 11.024 47.3926 7.47667 38.2463 7.57238C35.0909 7.5399 31.9595 8.12765 29.0279 9.30265C26.2152 10.4529 23.7128 12.2564 21.7252 14.5658C19.5175 17.2084 17.881 20.2847 16.9199 23.5987C15.6947 27.8461 15.1172 32.2559 15.2069 36.6777C15.1136 41.2005 15.7089 45.7111 16.9722 50.0527C17.959 53.4199 19.6285 56.5448 21.8755 59.2303C23.9349 61.61 26.5468 63.4406 29.479 64.5592C32.5963 65.7376 35.9037 66.3243 39.2335 66.2895C41.7902 66.3321 44.3428 66.0671 46.837 65.5C48.6803 65.0738 50.4715 64.445 52.1784 63.625C53.7226 62.9383 55.1465 62.0052 56.3953 60.8619V42.1119H43.6138V35.6974H70.5824V62.8355C67.9935 64.9274 65.1614 66.6948 62.1486 68.0987C58.884 69.5993 55.4869 70.7887 52.0018 71.6513C47.4926 72.7612 42.8619 73.2917 38.2201 73.2303C32.8323 73.3059 27.4678 72.5061 22.3332 70.8619C17.8582 69.411 13.7448 67.0104 10.2709 63.8224C6.88135 60.6483 4.26392 56.7313 2.62161 52.375C-0.908822 42.2161 -0.908822 31.1523 2.62161 20.9935C4.24925 16.665 6.81292 12.7548 10.127 9.54607C13.4952 6.37505 17.5117 3.98366 21.8951 2.53949C26.8541 0.903958 32.0475 0.103715 37.2656 0.171068V0.171068Z" fill="#F5F5F5"/>
<path d="M118.662 38.6579C118.662 33.9211 117.437 30.4342 114.987 28.1974C112.538 25.9605 109.352 24.8421 105.429 24.8421C99.6726 24.864 94.0481 26.5791 89.2479 29.7763L85.8156 23.8553C87.3085 22.8386 88.9012 21.9788 90.5686 21.2895C92.3095 20.5643 94.096 19.9556 95.9165 19.4671C97.706 18.9811 99.5223 18.6011 101.356 18.3289C103.029 18.0758 104.718 17.9439 106.41 17.9342C110.167 17.8707 113.913 18.3696 117.524 19.4145C120.488 20.2763 123.254 21.7184 125.664 23.6579C127.83 25.429 129.56 27.6808 130.717 30.2369C131.888 32.8931 132.474 35.7723 132.437 38.6776V71.2434H104.978C96.0865 71.2434 89.5312 69.8948 85.3121 67.1974C81.0931 64.5 78.9617 60.4145 78.9182 54.9408C78.9182 49.4803 81.0255 45.4013 85.2402 42.704C89.455 40.0066 96.0102 38.6579 104.906 38.6579H118.662ZM93.6544 54.9408C93.6544 61.1908 97.4137 64.3158 104.932 64.3158H118.662V45.5658H104.932C97.4137 45.5658 93.6544 48.6908 93.6544 54.9408V54.9408Z" fill="#F5F5F5"/>
<path d="M199.077 70.2368C199.116 73.1472 198.513 76.03 197.312 78.6776C196.108 81.255 194.316 83.5094 192.082 85.2566C189.479 87.2368 186.513 88.679 183.353 89.5C179.355 90.5452 175.233 91.0366 171.102 90.9605C169.412 90.9533 167.724 90.839 166.048 90.6184C164.213 90.38 162.395 90.0173 160.608 89.5329C158.782 89.0413 156.995 88.4146 155.26 87.6579C153.597 86.9338 152.006 86.0526 150.507 85.0263L153.94 79.1053C158.74 82.3029 164.364 84.018 170.121 84.0395C175.024 84.0395 178.784 82.9211 181.399 80.6842C184.014 78.4474 185.321 74.9605 185.321 70.2237V69.2368H173.063C168.893 69.2877 164.74 68.6885 160.752 67.4605C157.307 66.4092 154.095 64.7005 151.292 62.4276C148.723 60.3192 146.66 57.6542 145.258 54.6316C143.867 51.4603 143.149 48.0321 143.149 44.5658C143.149 41.0995 143.867 37.6713 145.258 34.5C146.661 31.4776 148.723 28.8127 151.292 26.704C154.095 24.4311 157.307 22.7223 160.752 21.6711C164.74 20.4431 168.893 19.8439 173.063 19.8947H199.051L199.077 70.2368ZM173.089 26.8158C168.382 26.8158 164.677 28.2785 161.975 31.204C159.272 34.1294 157.915 38.5877 157.902 44.5789C157.902 50.5658 159.259 55.0241 161.975 57.954C164.69 60.8838 168.395 62.3465 173.089 62.3421H185.348V26.8158H173.089Z" fill="#F5F5F5"/>
<path d="M249.091 38.6579C249.091 33.9211 247.867 30.4342 245.417 28.1974C242.968 25.9605 239.771 24.8421 235.826 24.8421C230.07 24.864 224.445 26.5791 219.645 29.7763L216.213 23.8553C217.706 22.8386 219.298 21.9788 220.966 21.2895C222.707 20.5644 224.493 19.9556 226.314 19.4671C228.103 18.9811 229.919 18.6011 231.753 18.329C233.426 18.0758 235.115 17.9439 236.807 17.9342C240.553 17.874 244.287 18.3729 247.888 19.4145C250.853 20.2764 253.619 21.7184 256.028 23.6579C258.194 25.4292 259.924 27.6809 261.082 30.2369C262.252 32.8931 262.839 35.7723 262.801 38.6776V71.2434H235.342C226.451 71.2434 219.896 69.8948 215.677 67.1974C211.457 64.5 209.35 60.4211 209.354 54.9605C209.354 49.5 211.462 45.4211 215.677 42.7237C219.891 40.0263 226.447 38.6776 235.342 38.6776L249.091 38.6579ZM224.058 54.9408C224.058 61.1908 227.817 64.3158 235.336 64.3158H249.065V45.5658H235.336C227.817 45.5658 224.058 48.6908 224.058 54.9408Z" fill="#F5F5F5"/>
<path d="M314.797 26.8158H303.028C298.583 26.8158 295.183 28.0176 292.829 30.4211C290.476 32.8246 289.299 36.3925 289.299 41.125V71.2237H275.57V41.125C275.57 34.4145 277.677 29.2018 281.892 25.4869C286.106 21.7719 292.171 19.9123 300.086 19.9079H314.797V26.8158Z" fill="#F5F5F5"/>
<path d="M337.352 7.57236C337.373 9.49634 336.654 11.3539 335.345 12.7566C333.925 14.1784 332.003 14.9765 330 14.9765C327.997 14.9765 326.076 14.1784 324.656 12.7566C323.363 11.3449 322.645 9.49542 322.645 7.57565C322.645 5.65588 323.363 3.80639 324.656 2.39473C325.354 1.69154 326.183 1.1337 327.096 0.753106C328.008 0.372509 328.986 0.176605 329.974 0.176605C330.962 0.176605 331.94 0.372509 332.853 0.753106C333.765 1.1337 334.594 1.69154 335.293 2.39473C336.628 3.78165 337.368 5.64136 337.352 7.57236V7.57236ZM336.862 71.2237H323.132V20.8947H336.862V71.2237Z" fill="#F5F5F5"/>
<path d="M405.019 71.2237H391.289V40.1382C391.289 35.4013 390.112 31.9978 387.759 29.9276C385.405 27.8575 382.005 26.8202 377.56 26.8158H364.811V71.2237H351.082V19.9079H377.56C386.909 19.9079 393.822 21.6031 398.298 24.9934C402.774 28.3838 405.014 33.4276 405.019 40.125V71.2237Z" fill="#F5F5F5"/>
<path d="M431 64.8092C431.019 66.7341 430.298 68.5918 428.986 69.9934C427.566 71.4152 425.645 72.2134 423.642 72.2134C421.639 72.2134 419.717 71.4152 418.297 69.9934C417.004 68.5818 416.286 66.7323 416.286 64.8125C416.286 62.8927 417.004 61.0432 418.297 59.6316C418.995 58.9284 419.824 58.3706 420.737 57.99C421.65 57.6094 422.628 57.4135 423.616 57.4135C424.603 57.4135 425.582 57.6094 426.494 57.99C427.407 58.3706 428.236 58.9284 428.934 59.6316C430.272 61.0174 431.014 62.8773 431 64.8092V64.8092Z" fill="#F5F5F5"/>
<path d="M215.265 91.2895C215.273 91.5649 215.34 91.8353 215.46 92.0827C215.581 92.33 215.753 92.5486 215.964 92.7237C216.658 93.2725 217.464 93.6591 218.324 93.8553L223.594 95.3947C224.985 95.7528 226.276 96.4281 227.366 97.3684C227.799 97.7732 228.14 98.2673 228.366 98.8168C228.591 99.3664 228.696 99.9585 228.674 100.553C228.684 101.331 228.509 102.1 228.164 102.796C227.779 103.518 227.201 104.117 226.497 104.526C225.568 105.065 224.556 105.441 223.502 105.638C222.012 105.925 220.496 106.057 218.978 106.033C218.061 106.034 217.145 105.966 216.239 105.829C215.377 105.699 214.525 105.51 213.689 105.263C212.94 105.044 212.208 104.769 211.499 104.441C210.904 104.169 210.335 103.844 209.799 103.467L211.159 101.414C212.214 102.057 213.337 102.58 214.506 102.974C215.951 103.44 217.462 103.662 218.978 103.632C220.678 103.632 221.868 103.412 222.548 102.974C222.851 102.802 223.104 102.554 223.283 102.254C223.462 101.955 223.56 101.613 223.568 101.263C223.56 100.988 223.492 100.718 223.369 100.472C223.246 100.227 223.07 100.012 222.855 99.8421C222.104 99.2893 221.247 98.8995 220.338 98.6974L215.069 97.1579C213.765 96.8035 212.554 96.1682 211.518 95.2961C211.058 94.8868 210.695 94.3787 210.457 93.8093C210.218 93.2399 210.109 92.6239 210.139 92.0066C210.133 91.2987 210.302 90.6003 210.629 89.9737C210.997 89.3056 211.531 88.7455 212.179 88.3487C213.008 87.8403 213.916 87.4756 214.866 87.2698C216.154 86.9873 217.47 86.8549 218.789 86.875C220.525 86.8523 222.254 87.1122 223.908 87.6448C225.229 88.0564 226.482 88.6616 227.628 89.4408L226.268 91.4934C225.269 90.8655 224.209 90.343 223.103 89.9342C221.715 89.459 220.254 89.2363 218.789 89.2763C217.857 89.2116 216.925 89.4123 216.101 89.8553C215.853 90.0034 215.645 90.2127 215.499 90.4636C215.353 90.7145 215.272 90.9987 215.265 91.2895V91.2895Z" fill="#F5F5F5"/>
<path d="M249.464 89.9211H246.234V87.5263H249.464V82.0526H254.224V87.5263H259.493V89.9211H254.224V98.8026C254.207 99.5478 254.304 100.291 254.511 101.007C254.669 101.547 254.936 102.049 255.296 102.48C255.606 102.843 255.996 103.129 256.433 103.316C256.864 103.499 257.326 103.593 257.793 103.592C258.46 103.594 259.123 103.485 259.755 103.27C260.308 103.088 260.842 102.852 261.35 102.566L262.37 104.789C261.626 105.155 260.846 105.442 260.042 105.645C259.189 105.871 258.31 105.986 257.427 105.987C254.864 105.987 252.903 105.349 251.543 104.072C250.842 103.397 250.294 102.577 249.936 101.668C249.579 100.76 249.42 99.7849 249.471 98.8092L249.464 89.9211Z" fill="#F5F5F5"/>
<path d="M280.604 87.5263H285.363V98.3026C285.363 99.943 285.771 101.123 286.586 101.842C287.595 102.623 288.853 103.007 290.123 102.921H294.542V87.5263H299.302V105.289H290.09C286.847 105.289 284.45 104.702 282.899 103.526C281.347 102.351 280.571 100.596 280.571 98.2632L280.604 87.5263Z" fill="#F5F5F5"/>
<path d="M330.102 105.316C328.655 105.333 327.215 105.124 325.832 104.697C324.636 104.33 323.525 103.726 322.564 102.921C321.665 102.157 320.95 101.199 320.471 100.118C319.989 98.9473 319.741 97.692 319.741 96.4243C319.741 95.1567 319.989 93.9014 320.471 92.7303C320.95 91.6494 321.665 90.6914 322.564 89.9276C323.525 89.1226 324.636 88.5187 325.832 88.1513C327.215 87.7246 328.655 87.5159 330.102 87.5329H334.351V81.3684H339.124V105.316H330.102ZM334.351 102.921V89.9211H330.102C329.391 89.9071 328.683 90.0185 328.01 90.25C327.368 90.4855 326.794 90.8791 326.342 91.3947C325.844 91.9838 325.474 92.672 325.257 93.4145C324.742 95.3541 324.742 97.3959 325.257 99.3355C325.454 100.103 325.813 100.819 326.31 101.434C326.762 101.95 327.335 102.343 327.977 102.579C328.658 102.825 329.378 102.948 330.102 102.941L334.351 102.921Z" fill="#F5F5F5"/>
<path d="M365.491 83.25C365.497 83.9171 365.246 84.5606 364.791 85.046C364.548 85.2917 364.26 85.4866 363.942 85.6197C363.623 85.7527 363.282 85.8212 362.938 85.8212C362.593 85.8212 362.252 85.7527 361.934 85.6197C361.616 85.4866 361.327 85.2917 361.084 85.046C360.632 84.5587 360.381 83.9168 360.381 83.25C360.381 82.5832 360.632 81.9413 361.084 81.454C361.574 80.9638 362.237 80.6887 362.928 80.6887C363.619 80.6887 364.282 80.9638 364.772 81.454C365.237 81.934 365.496 82.5794 365.491 83.25V83.25ZM365.321 105.316H360.561V87.8684H365.321V105.316Z" fill="#F5F5F5"/>
<path d="M396.297 86.8421C397.722 86.8362 399.139 87.0582 400.495 87.5C401.699 87.8826 402.812 88.5121 403.763 89.3487C404.686 90.1812 405.412 91.2107 405.888 92.3618C406.907 94.9958 406.907 97.9187 405.888 100.553C405.409 101.696 404.683 102.719 403.763 103.546C402.812 104.383 401.699 105.012 400.495 105.395C397.751 106.234 394.821 106.23 392.08 105.382C390.876 104.998 389.763 104.369 388.811 103.533C387.892 102.705 387.166 101.683 386.687 100.539C385.668 97.9055 385.668 94.9827 386.687 92.3487C387.163 91.1977 387.889 90.1682 388.811 89.3355C389.763 88.5 390.876 87.8707 392.08 87.4868C393.443 87.0467 394.866 86.829 396.297 86.8421V86.8421ZM396.297 103.776C396.998 103.782 397.692 103.643 398.337 103.368C398.991 103.074 399.564 102.622 400.004 102.053C400.527 101.376 400.914 100.602 401.142 99.7763C401.708 97.5535 401.708 95.2228 401.142 93C400.914 92.1739 400.527 91.4006 400.004 90.7237C399.564 90.1546 398.991 89.7028 398.337 89.4079C397.691 89.1368 396.997 88.9973 396.297 88.9973C395.597 88.9973 394.904 89.1368 394.257 89.4079C393.603 89.7024 393.03 90.1542 392.59 90.7237C392.066 91.4 391.68 92.1735 391.453 93C390.885 95.2227 390.885 97.5536 391.453 99.7763C391.68 100.603 392.066 101.376 392.59 102.053C393.03 102.622 393.603 103.074 394.257 103.368C394.903 103.643 395.597 103.782 396.297 103.776Z" fill="#F5F5F5"/>
</svg>
